<mxfile host="app.diagrams.net" modified="2024-04-26T22:45:40.183Z" agent="Mozilla/5.0 (Windows NT 10.0; Win64; x64) AppleWebKit/537.36 (KHTML, like Gecko) Chrome/124.0.0.0 Safari/537.36 Edg/124.0.0.0" version="24.2.8" etag="kv34UaPi3f-Sbgn5A1W0" type="github">
  <diagram name="Page-1" id="HaXGktnAYAxAmi2hGTTW">
    <mxGraphModel>
      <root>
        <mxCell id="0" />
        <mxCell id="1" parent="0" />
      </root>
    </mxGraphModel>
  </diagram>
</mxfile>
